<?xml version="1.0" encoding="UTF-8" standalone="no"?><!-- Generator: Gravit.io --><svg xmlns="http://www.w3.org/2000/svg" xmlns:xlink="http://www.w3.org/1999/xlink" style="isolation:isolate" viewBox="0 0 28 28" width="28pt" height="28pt"><defs><clipPath id="_clipPath_HqJ5HUx07QZBYazDoohRdl4P9Vxt27co"><rect width="28" height="28"/></clipPath></defs><g clip-path="url(#_clipPath_HqJ5HUx07QZBYazDoohRdl4P9Vxt27co)"><g><path d=" M 1.931 4.948 L 26.069 4.948 L 26.069 23.052 L 1.931 23.052 L 1.931 4.948 Z " fill="rgb(255,0,0)"/><path d=" M 0 21.121 L 0 21.121 L 0 21.121 C 0 22.187 0.865 23.052 1.931 23.052 C 2.996 23.052 3.861 22.187 3.861 21.121 C 3.861 20.256 3.291 19.523 2.505 19.278 L 2.505 8.722 C 3.291 8.477 3.861 7.744 3.861 6.879 C 3.861 5.813 2.996 4.948 1.931 4.948 C 0.865 4.948 0 5.813 0 6.879 L 0 6.879 L 0 21.121 Z " fill="rgb(255,0,0)"/><path d=" M 28 21.121 L 28 21.121 L 28 21.121 C 28 22.187 27.135 23.052 26.069 23.052 C 25.004 23.052 24.139 22.187 24.139 21.121 C 24.139 20.256 24.709 19.523 25.495 19.278 L 25.495 8.722 C 24.709 8.477 24.139 7.744 24.139 6.879 C 24.139 5.813 25.004 4.948 26.069 4.948 C 27.135 4.948 28 5.813 28 6.879 L 28 6.879 L 28 21.121 Z " fill="rgb(255,0,0)"/><path d=" M 22.689 14.767 L 19.316 13.849 C 18.695 13.677 18.12 13.404 17.595 13.031 L 17.59 13.031 C 17.59 13.031 17.585 13.031 17.585 13.026 L 15.813 11.759 L 15.803 11.759 L 14.031 10.491 L 12.254 9.219 L 11.108 8.401 C 10.891 8.245 10.633 8.164 10.366 8.164 C 9.664 8.164 9.003 8.437 8.508 8.937 C 8.013 9.436 7.741 10.098 7.746 10.799 L 7.751 11.43 L 7.004 11.43 C 6.985 10.794 6.464 10.287 5.827 10.284 L 5.176 10.284 C 4.525 10.284 4 10.815 4 11.461 L 4 18.266 C 4 19.134 4.707 19.836 5.57 19.836 L 20.079 19.836 C 21.82 19.826 23.36 18.71 23.91 17.054 C 24.062 16.595 24.021 16.08 23.789 15.651 C 23.557 15.22 23.16 14.901 22.689 14.767 L 22.689 14.767 Z  M 20.003 18.619 L 5.525 18.619 C 5.328 18.619 5.166 18.458 5.166 18.261 L 5.166 16.908 L 8.967 16.908 C 9.412 16.908 9.836 17.039 10.204 17.281 C 10.769 17.66 11.433 17.862 12.113 17.862 L 21.942 17.862 C 21.422 18.336 20.73 18.619 20.003 18.619 L 20.003 18.619 Z  M 22.764 16.645 L 17.09 16.645 L 11.411 12.581 C 10.681 12.057 9.845 11.699 8.962 11.531 C 8.967 11.501 8.967 11.476 8.967 11.451 L 8.962 10.784 C 8.962 10.406 9.104 10.052 9.371 9.78 C 9.639 9.512 9.992 9.366 10.371 9.366 C 10.386 9.366 10.396 9.371 10.406 9.376 L 11.057 9.845 L 10.543 10.567 C 10.449 10.697 10.411 10.86 10.437 11.018 C 10.464 11.177 10.553 11.318 10.684 11.41 C 10.79 11.486 10.916 11.521 11.037 11.521 C 11.224 11.521 11.411 11.435 11.532 11.269 L 12.047 10.547 L 12.84 11.112 L 12.325 11.834 C 12.231 11.965 12.193 12.127 12.219 12.285 C 12.246 12.444 12.335 12.585 12.466 12.677 C 12.572 12.753 12.698 12.788 12.819 12.788 C 13.006 12.788 13.193 12.703 13.314 12.536 L 13.829 11.814 L 14.622 12.38 L 14.107 13.101 C 14.013 13.232 13.975 13.394 14.001 13.552 C 14.028 13.711 14.117 13.852 14.248 13.944 C 14.354 14.02 14.48 14.056 14.601 14.056 C 14.788 14.056 14.975 13.97 15.096 13.803 L 15.611 13.081 L 16.404 13.647 L 15.889 14.369 C 15.795 14.499 15.757 14.661 15.783 14.82 C 15.81 14.978 15.899 15.119 16.03 15.212 C 16.136 15.287 16.262 15.323 16.383 15.323 C 16.57 15.323 16.757 15.237 16.878 15.07 L 17.408 14.328 C 17.908 14.621 18.443 14.848 19.008 15 L 22.381 15.923 C 22.532 15.964 22.658 16.065 22.729 16.201 C 22.79 16.347 22.81 16.504 22.764 16.645 L 22.764 16.645 Z " fill="rgb(255,255,255)"/></g></g></svg>