<?xml version="1.0" encoding="UTF-8" standalone="no"?><!-- Generator: Gravit.io --><svg xmlns="http://www.w3.org/2000/svg" xmlns:xlink="http://www.w3.org/1999/xlink" style="isolation:isolate" viewBox="0 0 28 28" width="28pt" height="28pt"><defs><clipPath id="_clipPath_yAx6PtNYfYNboKtH5m6BnmQJqO7JI4al"><rect width="28" height="28"/></clipPath></defs><g clip-path="url(#_clipPath_yAx6PtNYfYNboKtH5m6BnmQJqO7JI4al)"><g><path d=" M 10.187 18.74 L 7.608 21.318 C 7.469 21.458 7.294 21.521 7.112 21.521 C 6.931 21.521 6.756 21.451 6.616 21.318 C 6.485 21.188 6.412 21.011 6.412 20.826 C 6.412 20.641 6.485 20.464 6.616 20.333 L 9.194 17.755 L 7.804 16.364 L 7.713 16.273 C 7.007 16.455 6.344 16.832 5.806 17.377 C 4.646 18.537 3.961 22.366 3.688 24.519 C 5.84 24.253 9.67 23.561 10.83 22.401 C 11.389 21.842 11.752 21.179 11.934 20.487 L 11.444 19.998 L 10.187 18.74 Z " fill="rgb(255,168,36)"/><path d=" M 18.1 8.186 C 18.1 7.366 18.76 6.7 19.573 6.7 C 20.386 6.7 21.046 7.366 21.046 8.186 C 21.046 9.006 20.386 9.671 19.573 9.671 C 18.76 9.671 18.1 9.006 18.1 8.186 Z " fill="rgb(165,165,236)"/><path d=" M 10.718 9.51 C 10.739 9.482 10.76 9.454 10.781 9.433 L 5.91 8.371 L 3.856 10.425 L 8.035 14.603 C 8.531 13.36 9.474 11.228 10.718 9.51 L 10.718 9.51 Z  M 18.299 17.098 C 16.587 18.342 14.449 19.285 13.205 19.781 L 17.314 23.89 L 19.368 21.835 L 18.334 17.07 C 18.32 17.084 18.313 17.091 18.299 17.098 L 18.299 17.098 Z  M 10.187 16.763 L 13.981 12.968 C 14.157 12.792 14.413 12.724 14.654 12.788 C 14.894 12.852 15.082 13.04 15.146 13.281 C 15.211 13.521 15.142 13.778 14.966 13.954 L 11.172 17.748 L 12.122 18.698 C 13.093 18.335 15.602 17.329 17.475 15.966 C 21.828 12.808 24.336 8.252 24.413 3.396 C 19.55 3.472 15.001 5.981 11.843 10.334 C 10.48 12.214 9.474 14.722 9.111 15.686 L 10.187 16.763 L 10.187 16.763 Z  M 17.656 6.435 C 18.685 5.408 20.352 5.408 21.381 6.435 C 22.409 7.462 22.411 9.127 21.384 10.156 C 20.358 11.184 18.692 11.186 17.663 10.159 C 17.167 9.667 16.888 8.997 16.887 8.299 C 16.885 7.6 17.162 6.929 17.656 6.435 Z " fill="rgb(58,176,202)"/><path d=" M 6.623 15.169 C 5.959 15.449 5.351 15.854 4.82 16.385 C 2.892 18.314 2.27 24.54 2.207 25.238 C 2.186 25.448 2.263 25.651 2.41 25.797 C 2.541 25.929 2.72 26.002 2.906 26 L 2.969 26 C 3.674 25.937 9.893 25.315 11.822 23.387 C 12.36 22.849 12.765 22.234 13.038 21.584 L 16.825 25.371 C 16.958 25.504 17.132 25.574 17.321 25.574 C 17.51 25.574 17.684 25.497 17.817 25.371 L 20.633 22.555 C 20.801 22.387 20.87 22.143 20.822 21.912 L 19.557 16.106 C 21.332 14.589 22.799 12.787 23.854 10.83 C 25.231 8.28 25.887 5.555 25.818 2.739 L 25.818 2.683 C 25.81 2.312 25.511 2.012 25.14 2.005 L 25.084 2.005 C 22.261 1.935 19.543 2.592 16.992 3.969 C 15.05 5.017 13.261 6.47 11.759 8.217 L 5.84 6.931 C 5.61 6.882 5.365 6.952 5.198 7.12 L 2.382 9.936 C 2.251 10.066 2.177 10.244 2.177 10.428 C 2.177 10.613 2.251 10.79 2.382 10.921 L 6.623 15.169 Z  M 10.837 22.401 C 9.684 23.554 5.847 24.246 3.695 24.519 C 3.961 22.366 4.653 18.537 5.813 17.377 C 6.358 16.832 7.014 16.455 7.72 16.273 L 7.811 16.364 L 9.201 17.755 L 6.623 20.333 C 6.424 20.533 6.364 20.833 6.473 21.093 C 6.582 21.354 6.837 21.523 7.119 21.521 C 7.301 21.521 7.476 21.451 7.615 21.318 L 10.194 18.74 L 11.458 20.005 L 11.948 20.494 C 11.759 21.179 11.389 21.842 10.837 22.401 L 10.837 22.401 Z  M 17.321 23.89 L 13.212 19.781 C 14.456 19.285 16.594 18.342 18.306 17.098 C 18.32 17.091 18.327 17.084 18.341 17.077 L 19.375 21.842 L 17.321 23.89 Z  M 11.843 10.334 C 15.001 5.981 19.557 3.472 24.413 3.396 C 24.336 8.259 21.828 12.808 17.475 15.966 C 15.602 17.329 13.086 18.335 12.122 18.698 L 11.172 17.748 L 14.966 13.954 C 15.142 13.778 15.211 13.521 15.146 13.281 C 15.082 13.04 14.894 12.852 14.654 12.788 C 14.413 12.724 14.157 12.792 13.981 12.968 L 10.187 16.763 L 9.111 15.686 C 9.474 14.722 10.48 12.214 11.843 10.334 L 11.843 10.334 Z  M 5.903 8.371 L 10.774 9.433 C 10.753 9.461 10.732 9.489 10.711 9.51 C 9.467 11.221 8.524 13.36 8.028 14.603 L 3.849 10.425 L 5.903 8.371 L 5.903 8.371 Z  M 19.522 10.921 C 20.587 10.922 21.547 10.28 21.954 9.296 C 22.361 8.312 22.135 7.18 21.381 6.428 C 20.352 5.401 18.685 5.401 17.656 6.428 C 16.629 7.457 16.629 9.123 17.656 10.152 C 18.173 10.669 18.844 10.921 19.522 10.921 L 19.522 10.921 Z  M 18.648 7.42 C 18.886 7.183 19.207 7.057 19.522 7.057 C 19.836 7.057 20.151 7.176 20.395 7.42 C 20.749 7.774 20.854 8.305 20.663 8.767 C 20.472 9.228 20.022 9.529 19.522 9.529 C 19.022 9.529 18.572 9.228 18.381 8.767 C 18.189 8.305 18.295 7.774 18.648 7.42 Z " fill="rgb(116,116,116)"/></g></g></svg>